<svg width="279" height="31" viewBox="0 0 279 31" fill="none" xmlns="http://www.w3.org/2000/svg">
<g clip-path="url(#clip0_1_31)">
<path fill-rule="evenodd" clip-rule="evenodd" d="M107.619 0.6138H59.7017V6.5596H107.619V0.6138ZM107.619 12.8216H59.7017V18.7674H107.619V12.8216ZM59.7017 25.0294H107.619V30.9752H59.7017V25.0294Z" fill="#B4B4B4"/>
<path fill-rule="evenodd" clip-rule="evenodd" d="M173.809 0.6138H221.726V6.5596H173.809V0.6138ZM200.413 30.9752V10.8556L200.151 10.9858L195.384 13.3666V30.9752H200.413Z" fill="#B4B4B4"/>
<path fill-rule="evenodd" clip-rule="evenodd" d="M231.512 0.861801L249.202 9.6782L242.777 12.8836L231.009 7.0184V0.6138L231.512 0.861801ZM278.926 24.4962V30.9008L260.781 21.8612L267.2 18.6558L278.926 24.4962ZM278.927 7.0246V0.619997L278.428 0.861796L254.991 12.5612H254.986L248.567 15.7728L231.009 24.5334V30.9442L254.991 18.972L261.41 15.7666L278.927 7.0246Z" fill="#DC1637"/>
<path d="M5.02934 31H0V25.6494C0.00277434 19.0154 2.23207 12.6538 6.19849 7.96113C10.1649 3.26846 15.5443 0.628207 21.1558 0.619995H50.435V6.56579H21.1558C16.8814 6.57235 12.7836 8.58224 9.76064 12.1549C6.7377 15.7275 5.03628 20.5713 5.02934 25.6246V31Z" fill="#B4B4B4"/>
<path fill-rule="evenodd" clip-rule="evenodd" d="M119.029 0.610779H114.109V2.03429L114.107 2.03862C114.107 2.50424 114.106 3.03593 114.106 3.56668L114.106 3.56778C114.105 4.62659 114.104 5.68142 114.107 6.20001V31H119.136V7.6082L123.461 9.8626L162.059 30.9651V30.9752H162.078L162.123 31.0001H167.091V26.213L167.089 26.2121V15.6426L167.08 15.6469V0.62001H162.051V23.6115L158.854 21.9722L119.029 0.610779Z" fill="#B4B4B4"/>
</g>
<defs>
<clipPath id="clip0_1_31">
<rect width="279" height="31" fill="white"/>
</clipPath>
</defs>
</svg>
